<?xml version="1.0" encoding="UTF-8" standalone="no"?>
<!-- Created with Inkscape (http://www.inkscape.org/) -->

<svg
   xmlns:dc="http://purl.org/dc/elements/1.1/"
   xmlns:cc="http://creativecommons.org/ns#"
   xmlns:rdf="http://www.w3.org/1999/02/22-rdf-syntax-ns#"
   xmlns:svg="http://www.w3.org/2000/svg"
   xmlns="http://www.w3.org/2000/svg"
   xmlns:sodipodi="http://sodipodi.sourceforge.net/DTD/sodipodi-0.dtd"
   xmlns:inkscape="http://www.inkscape.org/namespaces/inkscape"
   id="svg5475"
   version="1.1"
   inkscape:version="0.91 r13725"
   xml:space="preserve"
   width="50"
   height="50"
   viewBox="0 0 50 50"
   sodipodi:docname="gpc_logo_web_green_flower.svg"><metadata
     id="metadata5481"><rdf:RDF><cc:Work
         rdf:about=""><dc:format>image/svg+xml</dc:format><dc:type
           rdf:resource="http://purl.org/dc/dcmitype/StillImage" /><dc:title></dc:title></cc:Work></rdf:RDF></metadata><defs
     id="defs5479" /><sodipodi:namedview
     pagecolor="#ffffff"
     bordercolor="#666666"
     borderopacity="1"
     objecttolerance="10"
     gridtolerance="10"
     guidetolerance="10"
     inkscape:pageopacity="0"
     inkscape:pageshadow="2"
     inkscape:window-width="1366"
     inkscape:window-height="720"
     id="namedview5477"
     showgrid="false"
     inkscape:zoom="6.800255"
     inkscape:cx="14.86279"
     inkscape:cy="20.480293"
     inkscape:window-x="0"
     inkscape:window-y="0"
     inkscape:window-maximized="1"
     inkscape:current-layer="g5483" /><g
     id="g5483"
     inkscape:groupmode="layer"
     inkscape:label="ink_ext_XXXXXX"
     transform="matrix(1.25,0,0,-1.25,0,49.999988)"><rect
       style="fill:#ffffff;fill-opacity:1;fill-rule:evenodd;stroke:none;stroke-width:0.5;stroke-miterlimit:4;stroke-dasharray:none;stroke-opacity:1"
       id="rect6029"
       width="40"
       height="40"
       x="0"
       y="-39.999989"
       transform="scale(1,-1)" /><g
       id="g5485"
       transform="matrix(0.01,0,0,0.01,4,3.9999904)"><path
         d="m 597.551,959.719 c -90.539,25.613 -177.524,60.551 -256.946,98.641 -31.375,-109.669 -55.39,-233.251 -71.882,-370.61 58.66,-13.121 185.75,-37.828 339.058,-45.762 -18.152,115.391 -21.621,221.801 -10.23,317.731 z m 367.09,-297.278 c -22.051,88.809 -29.106,175.118 -20.696,258.868 -93.847,-8.317 -189.297,1.171 -282.246,22.14 -8.386,-91.301 -1.648,-192.808 19.5,-303.75 90.949,-1.051 187.949,4.871 283.442,22.742 z M 447.605,1918.71 c -43.523,92.54 -74.832,189.06 -97.449,280.52 C 203.691,2131.11 87.5586,2054.74 34.0273,2017.22 60.332,1966.38 121.957,1854.33 212.41,1731.44 c 77.453,78.24 155.883,140.78 235.195,187.27 z m -59.167,365.7 c 140.8,43.22 269.96,64.26 387.042,62.87 7.469,96.43 27.086,191 52.735,279.01 -170.41,20.91 -327.777,21.59 -481.574,13.06 -0.196,-9.37 0.363,-22.97 1.418,-39.16 3.035,-61.82 12.273,-179.44 40.379,-315.78 z M 692.629,583.469 C 719.238,467.129 761.711,340.43 819.004,204.25 894.551,223.75 1005.57,257.07 1124.54,308.648 1058.49,411.34 1010.1,511.422 979.617,608.691 882.656,589.859 784.641,583.039 692.629,583.469 Z M 428.184,1413.04 C 345.508,1481.68 272.188,1560 209.57,1636.95 105.707,1513.42 32.7695,1395.21 0,1338.51 c 44.8477,-35.21 157.68,-119.24 305.215,-198.02 33.887,103.86 74.875,194.78 122.969,272.55 z M 2057.26,798.121 c -12.9,-90.269 -42.1,-176.91 -81.1,-258.141 193.4,-74.57 445.9,-99.589 756,-73.91 -5.7,134.239 -18.5,253.91 -37.1,360.41 -244.5,-81.332 -457.6,-90.558 -637.8,-28.359 z m 256.8,283.559 c -119.2,-6.59 -225.2,26.32 -313.01,71.38 45,-95.48 67.21,-194.349 61.81,-298.861 265,-97.617 612.5,-24.519 1034.2,218.081 -61.4,117.83 -123,219.81 -184.31,307.5 -197.89,-186.97 -398.19,-286.93 -598.69,-298.1 z m -524.9,-826.231 c 106.4,-63.707 230.8,-122.429 372.9,-175.9373 50.3,120.8793 88.5,231.9883 116.4,334.1603 -122.7,13.91 -231.6,39.937 -327.41,77.418 -46.59,-86.031 -103.19,-165.309 -161.89,-235.641 z M 1466.56,442.75 C 1384.67,378.691 1294.82,326.48 1206.66,284.391 1271.25,191.969 1350.53,97.1484 1444.53,0 c 56.72,44.4883 158.5,130.109 260.54,243.898 -94.61,61.903 -174.32,128.153 -238.51,198.852 z m 208.15,224.301 c -0.51,-0.821 -0.94,-1.68 -1.47,-2.461 -45.18,-70.801 -101.82,-132.66 -164.52,-187.031 62.13,-68.168 139.92,-132.129 232.44,-192.02 57.4,68.09 112.9,144.609 158.5,227.27 -87.8,40.41 -162.8,91.82 -224.95,154.242 z m -360.91,16.781 c -4.77,12.117 -9.76,24.289 -13.84,36.637 -0.92,2.793 -1.35,5.582 -2.28,8.39 -0.68,-0.429 -1.39,-0.839 -2.13,-1.23 -81.1,-50.578 -170.6,-84.777 -262.35,-107.18 29.76,-93.359 77.07,-189.769 141.62,-289.07 86.86,40.883 175.57,91.641 255.82,153.73 -50.56,62.993 -89.54,129.243 -116.84,198.723 z m 659.75,483.898 c -102.39,57.87 -176.19,129.59 -210.99,167.19 -13.3,-0.53 -31.8,-0.47 -52.2,1.82 -4.84,-18.85 -11.13,-38.97 -20.87,-61.88 0,0 -26.25,8.4 -56.2,25.33 -3.56,2.01 -7.13,4.14 -10.72,6.35 -0.35,-0.37 -0.74,-0.82 -1.11,-1.23 0,-0.04 -0.08,-0.08 -0.08,-0.1 -12,-14.43 -26.54,-29.57 -44.24,-45.51 0,0 -25.56,23.56 -47.63,57.52 -8.15,-3.88 -17.09,-7.61 -26.54,-11.25 -10.7,-4.12 -21.93,-8.2 -34.33,-11.99 0,0 -13.63,33.11 -19.15,74.08 -12.27,-0.17 -25.64,0.47 -39.99,1.72 -8.45,0.74 -16.32,1.19 -25.5,2.46 0,0 1.67,33.91 13.12,72 -16.47,7.61 -33.87,16.77 -53.08,29.12 -0.59,0.39 -1.12,0.66 -1.69,1.05 0,0 15.27,29.04 40.95,58.3 -9.55,11.27 -19.25,24.36 -29.13,39.22 -2.82,4.2 -5.6,8.32 -8.41,12.85 0,0 26.99,20.57 63.66,36.35 -5.25,18.73 -9.83,39.34 -12.85,64.06 0,0 42.63,9.1 89.29,4.89 6.61,21.56 16.29,45.44 30.66,72.44 0,0 26.83,-11.21 56.13,-31.78 10.64,78.09 38.48,386.31 -127.4,601.48 -46.74,60.51 -105.9,112.29 -177.38,155.33 -18.64,-46.97 -33.28,-95.33 -42.14,-144.98 -8.76,-49.02 -13.56,-99.19 -13.7,-149.68 170.9,-156.25 229.43,-458.59 231.89,-470.3 -15.46,51.42 -82.25,245.72 -227.88,389.89 11.75,-114.36 50.42,-227.44 127.51,-328.21 -92.22,120.53 -153.39,242.54 -173.62,369.98 -29.57,24.11 -61.8,45.9 -96.96,64.14 -72.97,37.78 -155.032,59.73 -245.294,67.09 -1.836,-75.72 5.097,-151.44 24.441,-224.41 4.231,-15.8 9.438,-31.39 14.485,-46.97 245.058,-36.6 468.678,-288.58 463.498,-282.42 -43.8,39.1 -222.42,186.09 -441.006,221.27 16.511,-40.32 36.426,-79.4 59.801,-116.74 13.253,-21.19 27.707,-41.66 43.324,-61.47 10.001,-12.63 20.031,-25.33 31.031,-37.3 7.58,-0.59 14.85,-1.54 22.28,-2.31 132.34,-14.29 278.58,-76.15 287.22,-79.64 -32.89,9.87 -123.38,33.76 -235.98,39.9 -10.7,0.58 -21.6,0.86 -32.64,1.09 l 130.67,-91.64 c -53.8,28.11 -102.89,58.75 -147.45,91.95 -99.721,0.26 -210.787,-16.17 -311.952,-67.96 70.579,-57.35 150.84,-104.56 239.18,-133.87 9.965,-3.32 20.012,-6.49 30.162,-9.36 122.56,44.21 281.23,55.68 290.75,56.47 -34.79,-6.29 -126.44,-25.93 -229.03,-70.28 37.85,-6.62 76.93,-9.84 117.13,-9.2 -46.92,-2.42 -92.78,-2.89 -136.55,0.65 -89.395,-40.9 -184.591,-100.68 -256.017,-186.56 93.594,-25.76 192.805,-36.76 291.727,-25.43 1.26,0.17 2.51,0.35 3.78,0.5 89.16,109.2 191.12,174.52 222.66,193.17 -26.52,-21.66 -101.17,-87.27 -171.38,-184.86 63.99,12.94 127.42,35.76 188.55,71.05 -68.19,-39.34 -135.63,-70.14 -202.74,-91.46 -48.37,-71.06 -92.53,-156.94 -114.15,-253.912 93.75,16.782 185.92,48.912 268.93,100.292 8.15,5.02 16.58,9.44 24.54,14.89 33.86,113.13 106.22,228.43 110.91,236.14 -13.44,-28.03 -46.65,-104.08 -69.5,-204.39 43.91,35.57 84.46,76.94 119.29,126.62 -39.08,-55.76 -80.36,-105.5 -124.29,-148.79 -17.6,-86.32 -25.55,-188.078 -7.06,-291.398 66.59,50.41 126.72,111.027 174.06,182.048 -0.69,3.81 -1.4,7.56 -2.04,11.33 -2.86,15.56 -4.63,31.89 -6.51,48.3 -10.6,100.31 4.08,217.85 5.08,226.85 -0.34,-34.53 2.02,-130.15 29.89,-242.95 27,48.13 48.39,100.38 62.23,157.17 -13.7,-65.27 -31.66,-126.33 -55.43,-182.22 23.66,-85.591 62.21,-178.251 125.69,-259.751 44.67,84.941 75.8,178.281 84.6,276.561 -77.72,110.92 -113.08,220.73 -122.98,255.88 l 0.16,0 c 5.39,-11.93 14.98,-31.68 28.85,-56.83 21.62,-39.54 53.5,-91.33 96.47,-145.47 0.2,39.76 -3.2,80.13 -11,120.91 10.6,-46.05 19,-91.42 23.1,-135.37 61.3,-74.23 142.9,-149.47 245.79,-199.08 6.01,97.231 -3.99,196.7 -36.7,291.25 z m -703.32,-117.91 c -80.13,-62.238 -169.37,-103.89 -270.64,-121.5 -0.117,-0.57 -0.242,-1.101 -0.332,-1.66 -9.61,-81.269 -2.879,-165.738 18.872,-252.89 89.58,21.378 176.4,54.289 253.82,103.468 2.16,1.391 4.31,2.871 6.45,4.321 1.61,1.023 3.23,2.089 4.84,3.16 -20.42,101.82 -10.68,199.691 10.98,284.631 -7.92,-6.7 -15.9,-13.26 -23.99,-19.53 z m 74.87,-287.011 c 2.43,-8.61 4.31,-17.317 7.15,-25.957 25.19,-76.211 65.78,-148.614 120.68,-217.204 59.17,51.032 112.25,108.801 154.17,174.454 3.08,4.859 6,9.839 9,14.757 -65.89,80.262 -102.76,170.903 -122.5,256.801 -41.72,-79.738 -96.92,-147.871 -168.5,-202.851 z M 449.414,2241.93 c -15.957,-4.38 -32.148,-9.2 -48.379,-14.18 0.371,-1.74 0.84,-3.46 1.278,-5.25 21.796,-90.43 52.179,-186.08 94.484,-277.33 76.914,38.6 154.551,62.19 232.961,70.9 8.328,0.9 16.637,2.4 25.008,2.97 18.132,1.27 35.949,1.11 53.562,0.47 -1.426,4.41 -3.047,8.67 -4.375,13.18 -1.465,4.94 -3.484,9.48 -4.832,14.49 -20.996,78.93 -28.437,160.22 -26.633,241.1 -98.367,1.25 -206.172,-14.26 -323.074,-46.35 z M 1925.06,561.359 c 38.9,79.629 67.5,164.161 79.2,251.7 0.2,1.941 0.4,3.929 0.6,5.882 -102.5,46.168 -179.8,117.868 -236.8,192.619 1.5,-104.818 -18.7,-203.259 -65.46,-295.138 60.06,-63.281 134.46,-114.801 222.46,-155.063 z m -74.5,1769.201 c -42.2,179.14 -164.99,345.35 -365.56,497.03 -73.79,-83.9 -143.37,-180.23 -193.41,-285.39 81.01,-47.34 148.31,-104.82 200.78,-173.14 181.63,-236.15 102.92,-562.21 80.89,-638.69 3.12,-2.21 6.27,-4.49 9.41,-6.92 14.84,16.27 33.46,33.3 57.15,51.1 0,0 22.74,-25 41.63,-60.02 0.01,0 0.06,-0.1 0.06,-0.1 3.04,1.15 6.45,2.21 9.66,3.34 11.76,4.08 24.29,7.99 38.49,11.52 0.8,0.2 1.5,0.38 2.3,0.61 0.7,0.16 1.3,0.25 1.9,0.47 4,1.01 7.6,2.17 12,3.06 0,0 10.4,-33.43 12.4,-74.1 11.1,-0.74 22.79,-2.07 35.4,-4.12 10.3,-1.66 20.5,-3.22 32,-5.88 0,0 -4.4,-32.81 -18.8,-69.25 9.2,-5.4 18.9,-11.68 28.8,-18.68 6.8,-4.8 13.4,-9.04 20.6,-14.66 0,0 -18.6,-28.93 -47.9,-56.37 10.8,-14.88 21.5,-32.52 32.3,-53.19 0.8,-1.38 1.5,-2.69 2.2,-4.08 0,0 -29.4,-18.59 -67.8,-31.13 3.6,-19.18 6.5,-40.31 7.3,-65.49 0,0 -3.4,-0.45 -8.6,-0.86 -1.9,-0.17 -3.9,-0.25 -6.3,-0.41 7.8,-6.17 17.3,-13.42 27.8,-21.17 37.6,-27.81 91.8,-63.71 158.2,-96.25 -22.9,51.54 -53,101.27 -91.9,147.75 43,-51.38 79.9,-103.32 110.1,-156.27 96,-44.53 213.8,-79.98 340.2,-72.75 286.9,16.25 576.5,230.43 861.69,636.25 -93.59,71.97 -182.19,132.77 -265.8,183.13 -100.48,-255.9 -240.39,-432.93 -418.59,-528.5 -63.5,-34.04 -128.7,-52.52 -192.2,-61.45 -197.93,-28 -425.88,63.17 -434.92,66.62 63.65,-17.88 357.64,-87.79 601.92,43.48 250.9,134.9 422.2,446.97 510,928.38 -132.4,29.28 -252.3,47.83 -360.8,57.05 16.5,-272.77 -35.6,-491.17 -156.3,-652.46 -178.08,-238.12 -561.58,-259.74 -570.86,-260.45 19.23,3.15 58.37,10.64 109.25,25.63 119.91,35.37 301.51,111.93 418.3,268.34 172.61,231.23 194.01,593.04 64.61,1075.7 -130.7,-28.81 -245.8,-62.07 -347.11,-98.83 142.61,-251.54 193.61,-481.45 150.81,-686.44 -62.4,-298.25 -349.6,-449.55 -407.4,-477.25 31.8,21.56 127.8,92.27 213.9,201.99 60.9,77.6 116.5,174.47 139.9,287.17 58.4,281.07 -73.2,616.05 -390.9,996.25 -58,-40.47 -188.68,-137.52 -315.59,-272.89 209.29,-159.3 337.59,-335.1 382.39,-525.84 61.89,-264.34 -86.9,-497.87 -148.9,-580.82 0.1,0.14 0.2,0.53 0.2,0.53 0,0 -6.9,-9.4 -15.5,-18.66 17.8,30.65 55.7,102.23 85.7,197.21 34.7,109.71 58.1,249.12 24.9,389.9 z M 606.309,1014.74 c 16.425,88.4 46.14,167.29 88.75,235.82 -78.641,30.71 -152.2,74.57 -220.313,125.75 -45.898,-74.61 -85.039,-162.23 -117.48,-262.56 76.914,-38.11 161.23,-73.3 249.043,-99.01 z m 346.257,-37.65 c 14.375,71.38 41.36,135.13 74.994,190.8 10.17,18.47 21.64,36.76 34.24,54.88 -101.839,-23.09 -203.245,-22.36 -305.472,7.17 -0.683,-1.08 -1.433,-2.07 -2.168,-3.19 -42.805,-66.38 -70.957,-142.79 -85.176,-228.59 93.465,-21.801 189.524,-31.308 283.582,-21.07 z m 486.824,1883.69 c -101.43,71.5 -220.38,139.7 -357.44,204.37 -24.03,-39.61 -113.583,-193.67 -179.809,-391.09 130.829,-22.07 244.549,-57.17 340.779,-105.26 51.43,108.17 121.95,206.47 196.47,291.98 z M 505.352,1423.26 c 68.359,-52.6 142.644,-96.76 222.121,-126.13 36.757,46.38 80.261,84.04 126.824,114.57 37.746,24.72 77.383,44.84 116.973,61.07 -8.965,1.6 -17.879,3.2 -26.68,5.1 -95.899,20.49 -182.664,59.61 -259.492,121.83 -67.481,-43.96 -127.5,-102.59 -179.746,-176.44 z m 657.358,809.7 c -0.93,39.18 1.85,78.95 9.14,119.42 10,55.78 26.46,109.86 47.36,161.93 -93.51,47.74 -205.29,82.27 -334.855,103.77 -25.761,-86.4 -45.695,-179.24 -53.386,-273.28 98.804,-7.48 188.831,-31.42 269.011,-73.09 22.33,-11.58 43.1,-24.7 62.73,-38.75 z M 994.766,1738.77 c -12.325,10.8 -23.379,22.4 -34.786,33.81 -54.804,54.94 -98.449,116.69 -129.316,186.87 -23.469,1.43 -47.148,1.93 -71.211,0.16 -79.297,-5.61 -158.105,-28.4 -236.348,-67.27 42.239,-79.88 94.571,-154.39 159.461,-216.76 1.516,-1.5 3,-3.02 4.536,-4.49 0.972,0.57 1.851,1.17 2.8,1.68 99.676,55.29 206.629,70.06 304.864,66 z m -747.114,-53.89 c 0.571,-0.7 1.164,-1.46 1.7,-2.11 60.003,-76.43 130.472,-154.37 209.996,-222.38 45.632,64.69 97.234,118.18 154.148,161.52 8.516,6.54 16.824,13.44 25.586,19.43 -0.41,0.47 -0.84,0.81 -1.238,1.24 -66.489,65.52 -120.305,142.14 -163.703,223.55 -63.582,-37.32 -126.797,-86.02 -189.473,-145.16 -12.359,-11.66 -24.707,-23.55 -37.016,-36.09"
         style="fill:#3d9f3b;fill-opacity:1;fill-rule:nonzero;stroke:none"
         id="path5487"
         inkscape:connector-curvature="0" /></g></g></svg>