<?xml version="1.0" encoding="UTF-8" standalone="no"?>
<!-- Created with Inkscape (http://www.inkscape.org/) -->

<svg
   xmlns:dc="http://purl.org/dc/elements/1.1/"
   xmlns:cc="http://creativecommons.org/ns#"
   xmlns:rdf="http://www.w3.org/1999/02/22-rdf-syntax-ns#"
   xmlns:svg="http://www.w3.org/2000/svg"
   xmlns="http://www.w3.org/2000/svg"
   xmlns:sodipodi="http://sodipodi.sourceforge.net/DTD/sodipodi-0.dtd"
   xmlns:inkscape="http://www.inkscape.org/namespaces/inkscape"
   id="svg6079"
   version="1.1"
   inkscape:version="0.91 r13725"
   xml:space="preserve"
   width="80"
   height="50"
   viewBox="0 0 80 50"
   sodipodi:docname="NDP_EN.svg"><metadata
     id="metadata6085"><rdf:RDF><cc:Work
         rdf:about=""><dc:format>image/svg+xml</dc:format><dc:type
           rdf:resource="http://purl.org/dc/dcmitype/StillImage" /><dc:title></dc:title></cc:Work></rdf:RDF></metadata><defs
     id="defs6083" /><sodipodi:namedview
     pagecolor="#ffffff"
     bordercolor="#666666"
     borderopacity="1"
     objecttolerance="10"
     gridtolerance="10"
     guidetolerance="10"
     inkscape:pageopacity="0"
     inkscape:pageshadow="2"
     inkscape:window-width="1366"
     inkscape:window-height="720"
     id="namedview6081"
     showgrid="false"
     inkscape:zoom="3.3905483"
     inkscape:cx="77.112089"
     inkscape:cy="18.807827"
     inkscape:window-x="0"
     inkscape:window-y="0"
     inkscape:window-maximized="1"
     inkscape:current-layer="g6087" /><g
     id="g6087"
     inkscape:groupmode="layer"
     inkscape:label="ink_ext_XXXXXX"
     transform="matrix(1.25,0,0,-1.25,0,50)"><rect
       style="fill:#ffffff;fill-opacity:1;fill-rule:evenodd;stroke:none;stroke-width:0.5;stroke-miterlimit:4;stroke-dasharray:none;stroke-opacity:1"
       id="rect6639"
       width="64"
       height="40"
       x="0"
       y="-40"
       transform="scale(1,-1)" /><g
       id="g6089"
       transform="matrix(0.016,0,0,0.016,5.5999711,13.620007)"><path
         d="m 804.941,352.227 c -10.878,-1.563 -27.109,-4.063 -36.211,3.964 -8.71,7.696 -5.839,22.344 -2.746,31.778 6.75,20.691 21.223,55.285 37.192,112.094 1.57,5.636 -2.375,8.652 -10.051,6.23 -7.598,-2.422 -40.762,-16.797 -70.234,-24.219 -17.989,-4.547 -50,-15.629 -64.414,2.121 -4.688,5.801 -5.657,13.664 -6.465,20.731 -0.567,4.793 -1.973,43.824 -13.516,28.801 -59.746,-77.668 -118.484,-143.278 -109.648,-73.036 8.711,69.028 19.531,146.899 30.261,216.715 1.614,10.52 -0.437,15.211 -10.554,8.672 -9.793,-6.32 -19.785,-12.433 -29.903,-18.305 -12.011,-8.043 -30.312,-10.699 -42.058,-1.019 -11.938,9.801 -58.02,119.492 -64.832,134.09 -5.676,12.179 -7.782,12.246 -14.477,0 -4.301,-7.879 -35.859,-76.742 -53.484,-107.012 -14.906,-25.68 -48.836,-8.152 -61.914,-0.273 -7.157,4.308 -12.02,9.23 -19.157,13.593 -2.675,1.618 -6.152,3.817 -9.441,2.891 -5.086,-1.469 -2.914,-11.922 -2.199,-15.203 11.64,-53.727 36.387,-176.445 36.387,-202.113 0,-25.582 -15.985,-16.711 -23.473,-10.649 -5.781,4.641 -63.441,51.684 -127.152,79.383 -6.848,2.973 -10.442,0.734 -8.59,-7.02 1.711,-7.464 3.91,-14.836 5.66,-22.328 2.371,-10.117 3.93,-40.711 -14.102,-39.394 -41.6481,3.023 -91.7653,8.551 -113.47234,5.66 -7.57813,-1.02 -8.77735,-3.941 -1.3711,-17.109 6.37114,-11.36 21.48824,-32.118 49.10154,-89.629 9.3907,-19.551 9.2305,-41.953 -13.457,-51.036 -5.2891,-2.148 -20.4102,-8.046 -24,-12.539 -5.7305,-7.168 26.5391,-17.5 31.5391,-19.336 39.7929,-14.804 126.5348,-45.39 151.4528,-84.628 7.914,-12.52 -2.797,-26.387 -11.015,-36.719 -3.778,-4.785 -21.528,-29.766 -3.778,-26.778 66.27,11.094 132.895,13.555 200.977,-7.949 L 379.172,0 l 51.641,0 -6.692,140.469 c 48.977,-16.192 100.281,-21.485 151.524,-12.676 10.539,1.797 28.613,5.078 42.011,9.023 28.645,9.004 10.282,15.625 5.305,17.188 -16.867,5.234 -28.957,29.219 -0.207,44.199 69.824,36.328 100.195,51.152 183.574,142.266 6.035,7.324 3.926,12.617 -1.387,11.758"
         style="fill:#f25c19;fill-opacity:1;fill-rule:nonzero;stroke:none"
         id="path6091"
         inkscape:connector-curvature="0" /><path
         d="m 1349.97,764.98 0,-240.046 -179.99,240.046 -270,0 0,-719.9683 270,0 0,239.9223 179.99,-239.9223 269.99,0 0,719.9683 -269.99,0"
         style="fill:#f25c19;fill-opacity:1;fill-rule:nonzero;stroke:none"
         id="path6093"
         inkscape:connector-curvature="0" /><path
         d="m 2884.94,389.988 -100.27,0 0,165 100.27,0 c 29.44,0 80,-21.812 80,-82.5 0,-60.711 -50.56,-82.5 -80,-82.5 z m 10.65,374.992 -395.61,0 0,-719.9683 284.96,0 0,134.9763 110.65,0 c 150,0 324.33,73.11 324.33,292.5 0,219.367 -174.33,292.492 -324.33,292.492"
         style="fill:#f25c19;fill-opacity:1;fill-rule:nonzero;stroke:none"
         id="path6095"
         inkscape:connector-curvature="0" /><path
         d="m 2058.69,294.973 -78.73,0 0,220.015 78.73,0 c 52.52,0 105.02,-27.508 105.02,-110 0,-82.515 -52.5,-110.015 -105.02,-110.015 z m 11.25,470.007 -359.98,0 0,-719.9683 359.98,0 c 180,0 360,89.9763 360,359.9763 0,269.985 -180,359.992 -360,359.992"
         style="fill:#f25c19;fill-opacity:1;fill-rule:nonzero;stroke:none"
         id="path6097"
         inkscape:connector-curvature="0" /></g></g></svg>